HIERARCHY
ROOT Pelvis
{
	OFFSET 0.000000 0.000000 0.000000
	CHANNELS 6 Xposition Yposition Zposition Xrotation Yrotation Zrotation
	JOINT LeftUpLeg_virtual
	{
		OFFSET 0.000000 0.000000 0.000000
		CHANNELS 3 Xrotation Yrotation Zrotation
		JOINT LeftUpLeg
		{
			OFFSET 18.735201 -5.666702 -4.541200
			CHANNELS 3 Xrotation Yrotation Zrotation
			JOINT LeftLeg
			{
				OFFSET -0.021200 -31.938179 0.493100
				CHANNELS 3 Xrotation Yrotation Zrotation
				JOINT LeftFoot
				{
					OFFSET 0.021200 -31.938179 -4.336299
					CHANNELS 3 Xrotation Yrotation Zrotation
					JOINT LeftToeBase
					{
						OFFSET 0.943001 -26.722000 15.023500
						CHANNELS 3 Xrotation Yrotation Zrotation
						End Site
						{
							OFFSET 0 0 0
						}
					}
				}
			}
		}
	}
	JOINT RightUpLeg_virtual
	{
		OFFSET 0.000000 0.000000 0.000000
		CHANNELS 3 Xrotation Yrotation Zrotation
		JOINT RightUpLeg
		{
			OFFSET -18.735201 -5.666702 -4.541200
			CHANNELS 3 Xrotation Yrotation Zrotation
			JOINT RightLeg
			{
				OFFSET 0.018946 -31.938133 0.493100
				CHANNELS 3 Xrotation Yrotation Zrotation
				JOINT RightFoot
				{
					OFFSET -0.018946 -31.938126 -4.336299
					CHANNELS 3 Xrotation Yrotation Zrotation
					JOINT RightToeBase
					{
						OFFSET -0.943001 -26.722004 15.023500
						CHANNELS 3 Xrotation Yrotation Zrotation
						End Site
						{
							OFFSET 0 0 0
						}
					}
				}
			}
		}
	}
	JOINT Hips_virtual
	{
		OFFSET 0.000000 0.000000 0.000000
		CHANNELS 3 Xrotation Yrotation Zrotation
		JOINT Hips
		{
			OFFSET -0.000000 -0.000000 -0.000000
			CHANNELS 3 Xrotation Yrotation Zrotation
			JOINT Spine
			{
				OFFSET 0.000000 10.199997 -0.299500
				CHANNELS 3 Xrotation Yrotation Zrotation
				JOINT Spine1
				{
					OFFSET 0.000000 11.900002 -1.516600
					CHANNELS 3 Xrotation Yrotation Zrotation
					JOINT Spine2
					{
						OFFSET 0.000000 13.600006 -2.842500
						CHANNELS 3 Xrotation Yrotation Zrotation
						JOINT Neck_virtual
						{
							OFFSET 0.000000 0.000000 0.000000
							CHANNELS 3 Xrotation Yrotation Zrotation
							JOINT Neck
							{
								OFFSET 0.000000 9.624100 -2.890100
								CHANNELS 3 Xrotation Yrotation Zrotation
								JOINT Head
								{
									OFFSET 0.000000 14.068802 -1.351900
									CHANNELS 3 Xrotation Yrotation Zrotation
									End Site
									{
										OFFSET 0 0 0
									}
								}
							}
						}
						JOINT LeftShoulder_virtual
						{
							OFFSET 0.000000 0.000000 0.000000
							CHANNELS 3 Xrotation Yrotation Zrotation
							JOINT LeftShoulder
							{
								OFFSET 15.263000 10.923401 -0.547700
								CHANNELS 3 Xrotation Yrotation Zrotation
								JOINT LeftArm
								{
									OFFSET 25.438599 -2.830597 -13.032500
									CHANNELS 3 Xrotation Yrotation Zrotation
									JOINT LeftForeArm
									{
										OFFSET 29.960503 0.000000 0.000000
										CHANNELS 3 Xrotation Yrotation Zrotation
										JOINT LeftHand
										{
											OFFSET 27.849251 0.000000 0.000000
											CHANNELS 3 Xrotation Yrotation Zrotation
											End Site
											{
												OFFSET 0 0 0
											}
										}
									}
								}
							}
						}
						JOINT RightShoulder_virtual
						{
							OFFSET 0.000000 0.000000 0.000000
							CHANNELS 3 Xrotation Yrotation Zrotation
							JOINT RightShoulder
							{
								OFFSET -15.263000 10.923401 -0.547700
								CHANNELS 3 Xrotation Yrotation Zrotation
								JOINT RightArm
								{
									OFFSET -25.438599 -2.830597 -13.032500
									CHANNELS 3 Xrotation Yrotation Zrotation
									JOINT RightForeArm
									{
										OFFSET -29.960503 0.000000 0.000000
										CHANNELS 3 Xrotation Yrotation Zrotation
										JOINT RightHand
										{
											OFFSET -27.849251 0.000000 0.000000
											CHANNELS 3 Xrotation Yrotation Zrotation
											End Site
											{
												OFFSET 0 0 0
											}
										}
									}
								}
							}
						}
					}
				}
			}
		}
	}
}
MOTION
Frames: 12
Frame Time: 0.03333333
-9.274006 67.427582 -67.427368 0.000000 0.000000 0.000000 66.387253 -69.144320 48.343024 -65.453997 -23.486546 33.048041 31.026715 3.908127 13.925355 -14.215014 -6.253977 -24.022993 0.000000 0.000000 0.000000 60.939699 -68.784772 44.088919 -14.484041 5.688177 -29.820524 42.184792 -17.350019 -3.781615 -1.292039 -19.418728 11.538396 0.000000 0.000000 0.000000 60.951980 -68.235256 43.786260 -0.748490 0.046981 -0.099675 6.592845 3.572379 -0.827918 -4.066078 7.529555 -2.558884 0.000000 0.000000 0.000000 -0.021260 8.418318 -2.727367 4.641996 -1.313277 -0.455086 0.000000 0.000000 0.000000 1.178850 9.132181 -2.047161 2.526501 9.678656 -19.920073 -37.277561 -37.739479 -31.463157 -112.117822 -58.782855 -117.508733 0.000000 0.000000 0.000000 -4.815085 8.637808 -3.077713 -12.017974 -2.687059 8.798442 -140.386807 73.618443 154.246831 -79.764240 67.035383 79.834215 0.000000 0.000000 0.000000 
-9.387674 69.263939 -74.074860 0.000000 0.000000 0.000000 61.800924 -69.799841 43.805271 -65.789816 -18.968171 34.993542 28.437334 7.852219 11.446801 -7.502813 -2.153777 -14.459312 0.000000 0.000000 0.000000 58.010436 -69.807989 41.127735 -25.507562 5.860415 -25.247625 56.055253 -14.600760 2.014427 3.530605 -15.185288 18.622405 0.000000 0.000000 0.000000 60.024105 -69.068669 42.491577 -0.724365 0.001238 -0.011438 6.826465 2.887202 -0.087717 -3.802885 6.913436 -2.158532 0.000000 0.000000 0.000000 -0.174445 7.860247 -2.402609 4.605339 -1.126597 -0.332268 0.000000 0.000000 0.000000 1.361180 8.652391 -1.777746 2.273092 9.817856 -19.226803 -37.021015 -35.939807 -31.605409 -112.441074 -58.621574 -117.751792 0.000000 0.000000 0.000000 -4.930734 8.178642 -2.688775 -12.014141 -2.845651 8.871059 -142.733906 74.037509 156.752828 -81.817265 67.165007 82.006311 0.000000 0.000000 0.000000 
-9.561150 71.642540 -80.318878 0.000000 0.000000 0.000000 56.590501 -69.922013 38.669949 -68.249812 -15.931872 34.530742 29.077314 8.945978 8.627204 -1.201750 -0.776552 -10.067307 0.000000 0.000000 0.000000 54.398632 -70.313908 37.269084 -34.201721 4.306217 -19.244500 64.963288 -11.983167 5.873417 4.004529 -9.971106 25.259325 0.000000 0.000000 0.000000 57.716751 -69.428545 39.652035 -0.691539 -0.030064 0.039446 7.063218 2.090953 0.758321 -3.550284 6.284711 -1.771972 0.000000 0.000000 0.000000 -0.374863 7.260498 -2.061116 4.524305 -0.979855 -0.209605 0.000000 0.000000 0.000000 1.525558 8.096655 -1.505706 1.985742 9.815056 -18.379146 -36.637749 -34.460029 -31.416657 -112.653841 -58.506458 -117.958637 0.000000 0.000000 0.000000 -4.699928 7.666106 -2.362209 -12.163986 -3.317545 8.659699 -147.703660 74.178477 161.466437 -80.617044 66.876978 80.918016 0.000000 0.000000 0.000000 
-9.709159 74.286522 -85.766312 0.000000 0.000000 0.000000 52.840823 -69.610699 34.913048 -71.909686 -14.435593 32.975549 32.005863 6.839080 5.714050 5.503102 -3.268433 -11.097689 0.000000 0.000000 0.000000 51.389250 -70.496295 33.892901 -38.716261 0.207709 -14.112884 68.583610 -11.514686 8.717662 -2.991595 -7.599312 29.237704 0.000000 0.000000 0.000000 55.122714 -69.314413 36.526253 -0.664006 -0.062266 0.040589 7.253652 1.291630 1.494762 -3.310672 5.777238 -1.478047 0.000000 0.000000 0.000000 -0.503474 6.772896 -1.821163 4.437058 -0.890600 -0.101297 0.000000 0.000000 0.000000 1.601332 7.604161 -1.277090 1.696920 9.554856 -17.512759 -36.105961 -33.225148 -30.877776 -113.378155 -58.312009 -118.703497 0.000000 0.000000 0.000000 -4.143034 7.251929 -2.184494 -12.439337 -3.947824 8.426004 -153.343375 73.813007 166.719126 -77.632620 66.302149 78.015213 0.000000 0.000000 0.000000 
-9.826345 76.884506 -89.845032 0.000000 0.000000 0.000000 51.018750 -69.283991 33.097365 -76.479657 -13.886101 31.899340 36.932820 3.543622 3.046059 12.653465 -7.454198 -13.556143 0.000000 0.000000 0.000000 49.891735 -70.688537 32.191665 -38.928981 -4.414294 -10.791935 68.613280 -12.977034 10.951947 -13.051377 -7.721685 30.192264 0.000000 0.000000 0.000000 53.269516 -68.922565 34.329863 -0.647590 -0.117179 0.007656 7.358270 0.656828 1.977308 -3.101615 5.486504 -1.275490 0.000000 0.000000 0.000000 -0.553888 6.478892 -1.694923 4.409062 -0.852625 -0.020766 0.000000 0.000000 0.000000 1.623733 7.292204 -1.091135 1.436834 9.010140 -16.739887 -35.543608 -32.035971 -30.241841 -114.568896 -58.086271 -119.899914 0.000000 0.000000 0.000000 -3.356194 7.020848 -2.180420 -12.741711 -4.587861 8.544213 -158.415514 73.305292 171.610798 -74.814416 65.661518 75.243427 0.000000 0.000000 0.000000 
-9.934441 78.883835 -92.274658 0.000000 0.000000 0.000000 51.564848 -69.256213 33.653069 -80.704095 -14.239922 31.117252 41.967172 0.578103 1.188181 19.096809 -11.377926 -15.001909 0.000000 0.000000 0.000000 50.072636 -70.804575 32.375414 -37.211403 -7.510130 -8.655526 67.019257 -15.241335 12.060547 -19.509816 -7.586394 29.724290 0.000000 0.000000 0.000000 52.654984 -68.679635 33.828718 -0.641524 -0.197208 -0.016069 7.412960 0.279952 2.152647 -2.867516 5.433507 -1.148456 0.000000 0.000000 0.000000 -0.587669 6.408388 -1.638746 4.457024 -0.856085 0.017030 0.000000 0.000000 0.000000 1.626501 7.200078 -0.944210 1.221460 8.269946 -16.117551 -35.149899 -30.831153 -29.813294 -115.844339 -57.936683 -121.133214 0.000000 0.000000 0.000000 -2.401563 6.988926 -2.323098 -13.015805 -5.188347 9.093768 -162.714435 73.108692 175.922082 -73.497371 65.247008 73.972185 0.000000 0.000000 0.000000 
-9.958268 80.062134 -93.242737 0.000000 0.000000 0.000000 54.748013 -69.586316 36.716044 -83.482076 -15.637341 29.267801 45.796053 -1.296983 0.649218 23.808742 -13.764755 -14.803853 0.000000 0.000000 0.000000 52.125043 -70.823242 34.504548 -35.562080 -8.003605 -6.907809 64.258406 -17.378339 11.374654 -19.547658 -6.072055 28.544400 0.000000 0.000000 0.000000 53.298941 -68.627555 34.885109 -0.675625 -0.246464 0.020523 7.436121 0.275793 2.119913 -2.600180 5.582113 -1.067840 0.000000 0.000000 0.000000 -0.722131 6.517191 -1.619274 4.579744 -0.883650 -0.002919 0.000000 0.000000 0.000000 1.549939 7.309347 -0.812529 1.067768 7.437999 -15.737579 -35.099423 -29.722927 -29.868550 -116.709778 -58.002178 -121.900859 0.000000 0.000000 0.000000 -1.357178 7.111152 -2.540494 -13.240847 -5.655544 9.882152 -166.013854 73.348773 179.273696 -73.705569 65.178528 74.244805 0.000000 0.000000 0.000000 
-9.854254 80.320839 -93.017090 0.000000 0.000000 0.000000 59.677466 -70.087774 41.398859 -84.057178 -17.681890 26.124876 47.932550 -1.822132 1.296198 25.625268 -14.633873 -14.011442 0.000000 0.000000 0.000000 55.965406 -70.787288 38.348684 -33.918979 -6.323656 -4.627208 60.255601 -19.332294 9.386474 -17.074776 -4.442732 24.938074 0.000000 0.000000 0.000000 55.018769 -68.887813 37.032838 -0.770036 -0.201032 0.087291 7.353084 0.592353 2.135535 -2.368372 5.788222 -1.049131 0.000000 0.000000 0.000000 -1.074008 6.697257 -1.606117 4.774359 -0.931944 -0.059410 0.000000 0.000000 0.000000 1.391736 7.508005 -0.711597 0.980572 6.560795 -15.579713 -35.335096 -28.746176 -30.405171 -117.451687 -58.219153 -122.531586 0.000000 0.000000 0.000000 -0.428585 7.268830 -2.743017 -13.411112 -5.973081 10.542476 -168.313920 73.824899 -178.448254 -74.458754 65.370231 75.057857 0.000000 0.000000 0.000000 
-9.706491 79.885765 -91.911697 0.000000 0.000000 0.000000 64.800511 -70.490264 46.244045 -82.425179 -19.588969 22.669523 47.874893 -1.385146 2.534117 23.961803 -15.296296 -14.682941 0.000000 0.000000 0.000000 59.890630 -70.731110 42.179632 -32.273334 -4.569932 -2.001998 56.730718 -21.422405 7.682244 -17.159040 -4.775920 18.282716 0.000000 0.000000 0.000000 57.199300 -69.312159 39.406401 -0.838236 -0.111966 0.115731 7.081171 0.996193 2.431505 -2.212999 5.901131 -1.086293 0.000000 0.000000 0.000000 -1.592597 6.854237 -1.592719 5.020914 -1.001080 -0.109099 0.000000 0.000000 0.000000 1.195937 7.636122 -0.649856 0.967636 5.636753 -15.576953 -35.694937 -27.961782 -31.213599 -118.415454 -58.470483 -123.415521 0.000000 0.000000 0.000000 0.166216 7.391281 -2.862042 -13.565026 -6.088646 10.737572 -168.969168 74.204732 -177.861801 -75.007724 65.702725 75.637030 0.000000 0.000000 0.000000 
-9.700384 79.264236 -90.538010 0.000000 0.000000 0.000000 67.735949 -70.693134 48.918621 -80.119533 -20.979005 20.369678 46.516952 -0.066678 3.556902 20.385692 -15.562465 -16.703591 0.000000 0.000000 0.000000 61.521583 -70.573100 43.664488 -30.882362 -4.429737 0.145307 54.735251 -23.776725 7.242400 -20.394784 -6.470721 10.209553 0.000000 0.000000 0.000000 59.085788 -69.647056 41.059419 -0.868348 -0.014688 0.076839 6.643856 1.286893 2.980976 -2.107866 5.911283 -1.157886 0.000000 0.000000 0.000000 -2.070482 6.948249 -1.569572 5.313632 -1.063140 -0.135383 0.000000 0.000000 0.000000 1.042270 7.650236 -0.615056 1.034509 4.728773 -15.668912 -36.028141 -27.217021 -31.997456 -119.646814 -58.674228 -124.618796 0.000000 0.000000 0.000000 0.330945 7.436297 -2.898605 -13.672283 -5.937245 10.572510 -168.115667 74.246636 -178.581498 -75.103223 66.084519 75.706568 0.000000 0.000000 0.000000 
-9.840586 78.802864 -89.569214 0.000000 0.000000 0.000000 66.599563 -70.659974 47.524173 -78.417252 -21.485485 20.015239 45.554968 2.299764 3.896973 17.239437 -14.330845 -18.515584 0.000000 0.000000 0.000000 60.451716 -70.222315 42.193640 -30.045944 -5.626211 1.804838 54.130724 -25.632095 7.631727 -23.171191 -7.714231 4.028499 0.000000 0.000000 0.000000 59.785841 -69.702606 41.182950 -0.870193 0.029461 -0.012535 6.119031 1.399537 3.591884 -1.981699 5.890776 -1.269333 0.000000 0.000000 0.000000 -2.351294 6.955790 -1.533674 5.628606 -1.100198 -0.133380 0.000000 0.000000 0.000000 0.966509 7.579307 -0.593645 1.144587 4.014141 -15.711959 -36.276262 -26.416081 -32.593263 -121.174823 -58.744510 -126.159632 0.000000 0.000000 0.000000 0.066950 7.417071 -2.853879 -13.663088 -5.628289 10.339734 -167.025063 73.993830 -179.175219 -74.917927 66.494289 75.455367 0.000000 0.000000 0.000000 
-10.091299 78.721497 -88.714340 0.000000 0.000000 0.000000 62.527397 -70.221489 43.243560 -77.536307 -21.400204 20.638287 45.271303 4.799634 3.899804 14.893050 -12.103257 -19.679899 0.000000 0.000000 0.000000 57.660887 -69.646237 38.736011 -29.385219 -6.579100 3.451547 53.969132 -26.169788 7.722150 -23.162730 -7.981367 2.045131 0.000000 0.000000 0.000000 58.738199 -69.240804 39.470031 -0.829825 0.000761 -0.066030 5.605949 1.397288 4.079009 -1.832430 5.903843 -1.384185 0.000000 0.000000 0.000000 -2.365697 6.908365 -1.497058 5.909861 -1.117901 -0.111098 0.000000 0.000000 0.000000 0.936388 7.485974 -0.564570 1.235506 3.597981 -15.618826 -36.440104 -25.654932 -32.982150 -122.592511 -58.729641 -127.606580 0.000000 0.000000 0.000000 -0.412994 7.378711 -2.754911 -13.588228 -5.295775 10.152464 -166.314095 73.617486 -179.153963 -74.647028 66.865571 75.141404 0.000000 0.000000 0.000000 
